<svg xmlns="http://www.w3.org/2000/svg" xmlns:xlink="http://www.w3.org/1999/xlink" viewBox="0 0 260 260"><defs><style>.cls-1,.cls-3{fill:none;}.cls-2{fill:#2af598;}.cls-3{stroke-miterlimit:10;stroke-width:5px;stroke:url(#grad_1);}.cls-4{fill:#08aeea;}</style><linearGradient id="grad_1" x1="18.06" y1="130.82" x2="241.94" y2="130.82" gradientUnits="userSpaceOnUse"><stop offset="0" stop-color="#08aeea"/><stop offset="1" stop-color="#2af598"/></linearGradient></defs><title>Asset 23</title><g id="Layer_2" data-name="Layer 2"><g id="Layer_1-2" data-name="Layer 1"><rect class="cls-1" width="260" height="260"/><rect class="cls-1" x="5" y="3" width="250" height="250"/><polygon class="cls-2" points="179.41 157.35 149.31 157.35 149.31 134.64 156.36 126.78 179.41 157.35"/><polygon class="cls-2" points="179.78 64.64 149.31 98.29 149.31 64.64 179.78 64.64"/><polygon class="cls-2" points="215.87 64.64 215.87 157.35 215.76 157.35 176.87 105.48 214 64.64 215.87 64.64"/><path class="cls-3" d="M239.44,65.14v91.43c0,31.56-27.22,57.14-60.8,57.14H81.36a83.56,83.56,0,0,0-36.48,11.43A77.3,77.3,0,0,0,20.56,248V65.14C20.56,33.59,47.78,8,81.36,8h97.28c3.84.1,31.31,1.3,48.64,22.86A55.7,55.7,0,0,1,239.44,65.14Z"/><path class="cls-4" d="M42.61,63.61H88.54c31.15,0,52.58,17.71,52.58,46.6S119.69,156.8,88.54,156.8H42.61Zm44.6,68.69c13.18,0,22.23-7.85,22.23-22.09s-9-22.1-22.23-22.1H74V132.3Z"/></g></g></svg>